PathFileType  4	(X/Y/Z) C:\Users\antoi\Documents\MyRepositories\mobilecap\ResultsAnalysis
DataRate	CameraRate	NumFrames	NumMarkers	Units	OrigDataRate	OrigDataStartFrame	OrigNumFrames
100.0	100.0	4	51	mm	100.0	91	145
Frame#	Time	r_knee			r_shank_antsup			r_ankle			r_calc			r_5meta			r_toe			L_knee			L_shank_antsup			L_ankle			L_calc			L_5meta			L_toe			r_sh2			r_sh3			r_sh4			L_sh2			L_sh3			r_thigh1			r_thigh2			r_thigh3			r_thigh4			r_thigh5			L_thigh1			L_thigh2			L_thigh3			L_thigh4			r.ASIS			r.PSIS			L.ASIS			L.PSIS			C7			R_Shoulder			L_Shoulder			R_Sternum			L_Sternum			R_humerus			R_elbow_med			R_elbow_lat			R_forearm			R_wrist_radius			R_wrist_ulna			L_humerus			L_elbow_med			L_elbow_lat			L_forearm			L_wrist_radius			L_wrist_ulna			R_HJC			L_HJC			R_HJC_reg			L_HJC_reg			
		X1	Y1	Z1	X2	Y2	Z2	X3	Y3	Z3	X4	Y4	Z4	X5	Y5	Z5	X6	Y6	Z6	X7	Y7	Z7	X8	Y8	Z8	X9	Y9	Z9	X10	Y10	Z10	X11	Y11	Z11	X12	Y12	Z12	X13	Y13	Z13	X14	Y14	Z14	X15	Y15	Z15	X16	Y16	Z16	X17	Y17	Z17	X18	Y18	Z18	X19	Y19	Z19	X20	Y20	Z20	X21	Y21	Z21	X22	Y22	Z22	X23	Y23	Z23	X24	Y24	Z24	X25	Y25	Z25	X26	Y26	Z26	X27	Y27	Z27	X28	Y28	Z28	X29	Y29	Z29	X30	Y30	Z30	X31	Y31	Z31	X32	Y32	Z32	X33	Y33	Z33	X34	Y34	Z34	X35	Y35	Z35	X36	Y36	Z36	X37	Y37	Z37	X38	Y38	Z38	X39	Y39	Z39	X40	Y40	Z40	X41	Y41	Z41	X42	Y42	Z42	X43	Y43	Z43	X44	Y44	Z44	X45	Y45	Z45	X46	Y46	Z46	X47	Y47	Z47	X48	Y48	Z48	X49	Y49	Z49	X50	Y50	Z50	X51	Y51	Z51	

91	0.90000000	941.60998	491.25515	-23.82078	935.09013	411.11557	-42.47691	641.20860	238.09114	-50.54297	573.78350	266.98082	-89.49403	666.76456	119.06255	-24.00517	721.66772	105.62571	-77.31563	895.49021	492.82090	-290.37810	928.02245	394.71455	-278.83969	829.73000	97.30116	-253.78919	749.10342	65.43179	-226.22568	938.13251	41.72505	-264.39966	964.17065	63.97452	-199.42557	836.74759	352.72702	-19.54896	892.10476	476.03534	-12.19720	797.05053	415.41921	-13.57853	843.09118	411.03866	-308.11377	830.98373	289.30045	-306.58804	898.07500	805.78776	-9.40668	934.66800	697.93124	-7.78490	882.76960	659.81268	13.29360	789.79463	768.69527	-5.26348	830.77896	657.40440	-9.29931	891.96499	757.89819	-360.21203	917.11871	626.11194	-322.59000	778.80001	735.85097	-344.66563	809.76870	602.89663	-313.14143	883.35643	953.80796	-48.19428	699.27662	992.34974	-140.93645	909.03576	956.49988	-298.47005	700.17296	1004.57876	-241.65542	699.64164	1413.03469	-182.36727	812.48482	1377.54088	-10.90871	771.69778	1378.57516	-364.31826	840.93998	1379.76642	-168.64475	844.56533	1379.48087	-210.99347	851.35499	1248.92611	48.89984	820.59007	1027.97103	30.62548	857.67126	1052.61295	88.40980	964.96374	962.15423	53.92908	1038.04739	854.22187	30.34035	1037.24591	844.21090	64.51544	779.25383	1265.87514	-427.97411	655.30093	1061.68907	-405.55523	704.95614	1070.54487	-465.83959	732.94791	957.40899	-447.86168	715.63611	799.88391	-457.10211	713.05783	806.37871	-491.55503	808.90537	874.16423	-82.38001	826.85771	883.04398	-287.86133	825.12118	867.88697	-93.56273	826.59079	887.90409	-258.41153	
92	0.91000000	963.11019	497.43591	-25.05129	958.76670	417.33947	-43.07535	672.06155	232.47439	-48.54803	602.79976	257.72879	-87.35556	703.73142	115.41427	-20.65044	758.69571	103.96349	-74.31950	897.27319	493.05155	-290.82598	929.23412	394.78877	-279.23853	829.83913	97.49069	-253.66830	749.23302	65.51069	-226.06887	938.17365	41.69703	-264.43196	964.29382	63.90264	-199.44143	862.71599	355.14101	-19.41696	913.35711	480.60846	-13.56385	820.70224	416.32692	-13.89479	844.35420	411.50865	-308.30825	831.71863	289.82046	-306.68232	913.29900	811.11366	-10.16068	951.80452	704.15295	-8.71193	901.81557	664.91902	13.87305	805.60245	771.73900	-3.20187	849.12828	661.26676	-7.52952	898.56714	758.10415	-360.22722	921.32159	625.77677	-323.03589	785.43330	738.49941	-343.77773	813.84690	605.01416	-312.76795	895.59375	957.48731	-49.13968	710.63675	994.82794	-139.76864	919.26544	958.38540	-299.33405	710.79603	1006.52733	-240.46183	710.87804	1415.29595	-182.60223	823.22615	1379.85263	-10.91941	782.93679	1381.14959	-364.30488	851.99975	1382.07605	-168.57388	855.69665	1381.75856	-210.90024	861.57837	1251.20749	49.34486	829.11704	1030.48161	31.69902	866.12543	1054.97752	89.58715	972.69212	963.32032	56.42060	1045.12174	854.61606	33.98195	1043.69901	844.66079	68.12060	791.38061	1268.85647	-428.40034	669.14523	1063.36860	-407.39432	719.00100	1072.84588	-467.38460	748.90081	960.14744	-448.71032	734.76302	802.36037	-457.12512	731.82750	808.55493	-491.57866	821.24324	877.34833	-81.68239	837.12356	884.90870	-287.38712	837.22951	870.94259	-93.61399	837.49143	890.08701	-258.37790	
93	0.92000000	983.89463	503.41778	-26.36456	981.97193	423.51034	-43.66414	703.48758	225.97260	-46.49659	632.58056	247.55930	-84.91827	741.34785	111.08075	-17.78399	796.33792	101.98003	-71.81965	899.13276	493.28421	-291.05845	930.35787	394.89257	-279.46473	829.92850	97.68921	-253.49042	749.41079	65.55890	-225.91317	938.21488	41.67525	-264.44592	964.43585	63.84099	-199.42038	888.51908	357.22483	-19.30812	933.89144	484.85069	-14.95469	844.07203	416.68798	-14.17952	845.58946	411.98574	-308.39137	832.45078	290.33965	-306.67794	928.49579	816.16982	-10.83039	968.60426	710.00955	-9.68006	920.51179	669.86414	14.33762	821.40928	774.84283	-0.83675	867.10602	665.27449	-5.60415	905.24957	758.19193	-360.03607	925.68538	625.52049	-323.12322	792.30054	741.07138	-342.98712	818.20903	607.03855	-312.42340	907.77071	960.93893	-50.04789	721.99841	997.14833	-138.48896	929.42667	960.07089	-300.15426	721.37122	1008.30691	-239.13493	722.05973	1417.41556	-182.86780	833.91640	1382.04945	-10.96545	794.05640	1383.53939	-364.34586	862.97871	1384.30104	-168.59238	866.74223	1383.95477	-210.87979	871.70299	1253.40320	49.82818	837.64294	1032.88579	32.90586	874.58942	1057.29251	90.83462	980.35085	964.39291	58.95141	1052.06323	854.89346	37.67045	1050.04673	845.02514	71.78387	803.49995	1271.67057	-428.86099	682.91755	1064.91795	-409.40960	733.04582	1075.02994	-469.05206	764.85978	962.81869	-449.65940	753.98757	804.84756	-457.18803	750.72152	810.72934	-491.65906	833.54748	880.33311	-80.93245	847.30533	886.59389	-286.83836	849.29371	873.81817	-93.58131	848.26649	892.07514	-258.25946	
94	0.93000000	1003.93675	509.07322	-27.72691	1004.64404	429.46434	-44.29651	735.50127	218.70007	-44.44593	663.17152	236.57782	-82.25779	779.59281	106.23910	-15.37442	834.51831	99.77449	-69.80002	901.11835	493.51091	-291.08496	931.43454	395.00108	-279.53492	829.99978	97.90134	-253.25768	749.62175	65.58150	-225.76328	938.25344	41.66171	-264.44172	964.58776	63.79216	-199.36674	914.16758	358.91530	-19.25082	953.68485	488.64048	-16.27921	867.18221	416.41396	-14.38027	846.83016	412.44976	-308.35822	833.19016	290.84448	-306.57100	943.54707	820.90709	-11.39589	985.06488	715.45116	-10.70211	938.76923	674.60137	14.67113	837.18031	777.94807	1.69770	884.71098	669.30578	-3.61369	912.03790	758.14947	-359.62417	930.24165	625.32837	-322.84422	799.34714	743.52558	-342.26997	822.77729	608.95279	-312.07551	919.81022	964.08869	-50.86905	733.35365	999.31018	-137.13638	939.52179	961.49351	-300.90344	731.91984	1009.90231	-237.72380	733.20344	1419.36848	-183.15527	844.58031	1384.09756	-11.04821	805.08039	1385.71902	-364.43646	873.90573	1386.39206	-168.69274	877.71544	1386.02392	-210.92651	881.71518	1255.47070	50.34989	846.18972	1035.14280	34.19771	883.05232	1059.51095	92.12348	987.98289	965.35585	61.51389	1058.89344	855.03631	41.39773	1056.30985	845.28307	75.50074	815.59189	1274.27787	-429.34513	696.67619	1066.25811	-411.51429	747.10282	1077.03808	-470.78602	780.82946	965.36291	-450.71215	773.27427	807.28986	-457.34090	769.69813	812.86756	-491.84164	845.73344	883.07366	-80.13218	857.39636	888.05561	-286.20899	861.22185	876.47913	-93.42114	858.87226	893.81109	-258.03471	
